<svg xmlns="http://www.w3.org/2000/svg" xmlns:xlink="http://www.w3.org/1999/xlink" width="500" zoomAndPan="magnify" viewBox="0 0 375 374.999991" height="500" preserveAspectRatio="xMidYMid meet" version="1.0"><defs><g/><clipPath id="05510f0643"><path d="M 94 175 L 260.4375 175 L 260.4375 282.164062 L 94 282.164062 Z M 94 175 " clip-rule="nonzero"/></clipPath><clipPath id="af471a59b4"><path d="M 101 81.914062 L 254 81.914062 L 254 156 L 101 156 Z M 101 81.914062 " clip-rule="nonzero"/></clipPath></defs><g clip-path="url(#05510f0643)"><path fill="#4088ce" d="M 260.476562 175.964844 L 260.476562 250.085938 L 239.035156 248.601562 C 231.445312 248.117188 222.933594 250.003906 214.78125 253.417969 C 205.785156 257.152344 197.394531 262.695312 191.371094 268.636719 L 177.238281 282.570312 L 163.144531 268.636719 C 157.121094 262.695312 148.730469 257.113281 139.734375 253.417969 C 131.625 250.046875 123.070312 248.160156 115.484375 248.601562 L 94.039062 250.085938 L 94.039062 175.964844 L 102.511719 175.964844 L 102.511719 241.089844 L 114.878906 240.207031 C 123.875 239.605469 133.710938 241.773438 142.988281 245.628906 C 152.945312 249.765625 162.261719 255.90625 169.128906 262.613281 L 177.238281 270.722656 L 185.429688 262.613281 C 192.214844 255.90625 201.609375 249.765625 211.570312 245.628906 C 220.765625 241.773438 230.640625 239.605469 239.597656 240.207031 L 252.042969 241.089844 L 252.042969 175.964844 Z M 260.476562 175.964844 " fill-opacity="1" fill-rule="nonzero"/></g><g clip-path="url(#af471a59b4)"><path fill="#4088ce" d="M 224.015625 135.207031 L 224.015625 122.480469 L 253.207031 110.113281 L 177.238281 81.804688 L 101.347656 110.113281 L 130.460938 122.480469 L 130.460938 135.207031 C 143.1875 137.09375 155.433594 141.914062 166.597656 148.457031 C 170.050781 150.507812 173.703125 152.875 177.238281 155.445312 C 180.773438 152.875 184.425781 150.507812 187.878906 148.457031 C 199.042969 141.914062 211.289062 137.09375 224.015625 135.207031 Z M 224.015625 135.207031 " fill-opacity="1" fill-rule="nonzero"/></g><path fill="#4088ce" d="M 173.023438 174.277344 L 173.023438 163.394531 C 162.058594 154.882812 139.65625 140.707031 113.796875 142.554688 L 109.859375 142.835938 L 109.859375 233.222656 L 114.316406 232.898438 C 143.066406 230.851562 167.320312 251.089844 173.023438 256.269531 Z M 162.542969 181.183594 C 158.324219 178.53125 153.546875 175.921875 148.207031 173.59375 C 139.9375 170.0625 130.539062 167.371094 120.382812 167.089844 L 120.382812 162.832031 C 131.140625 163.152344 141.179688 166.003906 149.8125 169.738281 C 154.472656 171.707031 158.769531 173.957031 162.542969 176.242188 Z M 162.542969 204.59375 C 158.324219 201.941406 153.546875 199.332031 148.207031 197.003906 C 139.9375 193.46875 130.539062 190.78125 120.382812 190.5 L 120.382812 186.242188 C 131.140625 186.5625 141.179688 189.414062 149.8125 193.148438 C 154.472656 195.117188 158.769531 197.363281 162.542969 199.652344 Z M 162.542969 228 C 158.324219 225.351562 153.546875 222.742188 148.207031 220.414062 C 139.9375 216.878906 130.539062 214.1875 120.382812 213.90625 L 120.382812 209.652344 C 131.140625 209.972656 141.179688 212.824219 149.8125 216.476562 C 154.472656 218.523438 158.769531 220.734375 162.542969 223.0625 Z M 233.53125 167.089844 C 223.65625 167.492188 214.378906 170.140625 206.308594 173.59375 C 200.6875 175.964844 195.667969 178.8125 191.332031 181.503906 L 191.332031 176.566406 C 195.265625 174.195312 199.722656 171.746094 204.582031 169.738281 C 213.09375 166.085938 222.933594 163.316406 233.492188 162.914062 L 233.492188 167.089844 Z M 233.53125 190.5 C 223.65625 190.898438 214.378906 193.550781 206.308594 197.003906 C 200.6875 199.371094 195.667969 202.222656 191.332031 204.914062 L 191.332031 199.976562 C 195.265625 197.605469 199.722656 195.15625 204.582031 193.148438 C 213.09375 189.496094 222.933594 186.722656 233.492188 186.324219 L 233.492188 190.5 Z M 233.53125 213.949219 C 223.65625 214.347656 214.378906 217 206.308594 220.453125 C 200.6875 222.820312 195.667969 225.671875 191.332031 228.363281 L 191.332031 223.425781 C 195.265625 220.976562 199.722656 218.605469 204.582031 216.519531 C 213.09375 212.863281 222.933594 210.09375 233.492188 209.730469 L 233.492188 213.949219 Z M 181.496094 245.1875 L 181.496094 256.148438 C 187.195312 251.007812 211.410156 230.773438 240.117188 232.78125 L 244.65625 233.101562 L 244.65625 142.796875 L 240.71875 142.515625 C 214.78125 140.667969 192.457031 154.84375 181.496094 163.355469 Z M 181.496094 245.1875 " fill-opacity="1" fill-rule="nonzero"/><g fill="#000000" fill-opacity="1"><g transform="translate(115.575347, 303.517862)"><g><path d="M 6.96875 0.21875 C 5.875 0.21875 4.898438 0.0859375 4.046875 -0.171875 C 3.203125 -0.441406 2.492188 -0.796875 1.921875 -1.234375 C 1.359375 -1.671875 0.929688 -2.148438 0.640625 -2.671875 L 2.34375 -4.765625 L 2.609375 -4.765625 C 3.078125 -4.054688 3.675781 -3.492188 4.40625 -3.078125 C 5.132812 -2.660156 5.988281 -2.453125 6.96875 -2.453125 C 7.789062 -2.453125 8.410156 -2.628906 8.828125 -2.984375 C 9.253906 -3.335938 9.46875 -3.820312 9.46875 -4.4375 C 9.46875 -4.8125 9.398438 -5.125 9.265625 -5.375 C 9.128906 -5.625 8.90625 -5.835938 8.59375 -6.015625 C 8.28125 -6.191406 7.851562 -6.347656 7.3125 -6.484375 L 5.296875 -6.9375 C 3.890625 -7.257812 2.835938 -7.796875 2.140625 -8.546875 C 1.453125 -9.296875 1.109375 -10.269531 1.109375 -11.46875 C 1.109375 -12.351562 1.328125 -13.128906 1.765625 -13.796875 C 2.210938 -14.472656 2.859375 -15 3.703125 -15.375 C 4.554688 -15.75 5.570312 -15.9375 6.75 -15.9375 C 7.96875 -15.9375 9.003906 -15.773438 9.859375 -15.453125 C 10.722656 -15.128906 11.453125 -14.640625 12.046875 -13.984375 L 10.515625 -11.875 L 10.25 -11.875 C 9.800781 -12.34375 9.289062 -12.691406 8.71875 -12.921875 C 8.144531 -13.160156 7.488281 -13.28125 6.75 -13.28125 C 5.90625 -13.28125 5.257812 -13.128906 4.8125 -12.828125 C 4.363281 -12.523438 4.140625 -12.109375 4.140625 -11.578125 C 4.140625 -11.085938 4.296875 -10.691406 4.609375 -10.390625 C 4.921875 -10.097656 5.460938 -9.875 6.234375 -9.71875 L 8.296875 -9.28125 C 9.816406 -8.957031 10.921875 -8.410156 11.609375 -7.640625 C 12.296875 -6.867188 12.640625 -5.863281 12.640625 -4.625 C 12.640625 -3.644531 12.425781 -2.789062 12 -2.0625 C 11.582031 -1.34375 10.945312 -0.78125 10.09375 -0.375 C 9.238281 0.0195312 8.195312 0.21875 6.96875 0.21875 Z M 6.96875 0.21875 "/></g></g></g><g fill="#000000" fill-opacity="1"><g transform="translate(129.065138, 303.517862)"><g><path d="M 1.703125 0 L 1.703125 -16.609375 L 4.6875 -16.609375 L 4.6875 -10.296875 L 4.90625 -10.265625 C 5.300781 -10.835938 5.785156 -11.28125 6.359375 -11.59375 C 6.929688 -11.914062 7.625 -12.078125 8.4375 -12.078125 C 11.050781 -12.078125 12.359375 -10.59375 12.359375 -7.625 L 12.359375 0 L 9.375 0 L 9.375 -7.25 C 9.375 -8.0625 9.210938 -8.648438 8.890625 -9.015625 C 8.566406 -9.378906 8.066406 -9.5625 7.390625 -9.5625 C 6.554688 -9.5625 5.894531 -9.28125 5.40625 -8.71875 C 4.925781 -8.164062 4.6875 -7.304688 4.6875 -6.140625 L 4.6875 0 Z M 1.703125 0 "/></g></g></g><g fill="#000000" fill-opacity="1"><g transform="translate(142.94158, 303.517862)"><g><path d="M 3.1875 -13.265625 C 2.65625 -13.265625 2.21875 -13.425781 1.875 -13.75 C 1.539062 -14.082031 1.375 -14.503906 1.375 -15.015625 C 1.375 -15.523438 1.539062 -15.941406 1.875 -16.265625 C 2.21875 -16.597656 2.65625 -16.765625 3.1875 -16.765625 C 3.550781 -16.765625 3.867188 -16.6875 4.140625 -16.53125 C 4.421875 -16.382812 4.640625 -16.175781 4.796875 -15.90625 C 4.953125 -15.644531 5.03125 -15.347656 5.03125 -15.015625 C 5.03125 -14.679688 4.953125 -14.378906 4.796875 -14.109375 C 4.640625 -13.847656 4.421875 -13.640625 4.140625 -13.484375 C 3.867188 -13.335938 3.550781 -13.265625 3.1875 -13.265625 Z M 1.703125 0 L 1.703125 -11.84375 L 4.6875 -11.84375 L 4.6875 0 Z M 1.703125 0 "/></g></g></g><g fill="#000000" fill-opacity="1"><g transform="translate(149.321306, 303.517862)"><g><path d="M 1.703125 0 L 1.703125 -16.609375 L 4.6875 -16.609375 L 4.6875 -7.390625 L 4.96875 -7.390625 L 8.40625 -11.84375 L 11.421875 -11.84375 L 11.421875 -11.609375 L 7.390625 -6.40625 L 11.875 -0.265625 L 11.875 0 L 8.734375 0 L 4.96875 -5 L 4.6875 -5 L 4.6875 0 Z M 1.703125 0 "/></g></g></g><g fill="#000000" fill-opacity="1"><g transform="translate(161.210801, 303.517862)"><g><path d="M 5.546875 0.21875 C 4.734375 0.21875 3.988281 0.125 3.3125 -0.0625 C 2.644531 -0.25 2.070312 -0.507812 1.59375 -0.84375 C 1.113281 -1.175781 0.757812 -1.554688 0.53125 -1.984375 L 2.1875 -3.765625 L 2.421875 -3.765625 C 2.816406 -3.234375 3.28125 -2.835938 3.8125 -2.578125 C 4.351562 -2.316406 4.9375 -2.1875 5.5625 -2.1875 C 6.144531 -2.1875 6.582031 -2.285156 6.875 -2.484375 C 7.164062 -2.691406 7.3125 -2.992188 7.3125 -3.390625 C 7.3125 -3.679688 7.207031 -3.929688 7 -4.140625 C 6.789062 -4.347656 6.445312 -4.507812 5.96875 -4.625 L 4.40625 -5 C 3.226562 -5.28125 2.367188 -5.707031 1.828125 -6.28125 C 1.285156 -6.851562 1.015625 -7.582031 1.015625 -8.46875 C 1.015625 -9.207031 1.203125 -9.847656 1.578125 -10.390625 C 1.960938 -10.941406 2.492188 -11.359375 3.171875 -11.640625 C 3.859375 -11.929688 4.65625 -12.078125 5.5625 -12.078125 C 6.632812 -12.078125 7.519531 -11.921875 8.21875 -11.609375 C 8.914062 -11.304688 9.460938 -10.894531 9.859375 -10.375 L 8.265625 -8.65625 L 8.0625 -8.65625 C 7.726562 -9.03125 7.351562 -9.300781 6.9375 -9.46875 C 6.53125 -9.644531 6.070312 -9.734375 5.5625 -9.734375 C 4.382812 -9.734375 3.796875 -9.367188 3.796875 -8.640625 C 3.796875 -8.328125 3.90625 -8.070312 4.125 -7.875 C 4.34375 -7.6875 4.726562 -7.53125 5.28125 -7.40625 L 6.75 -7.09375 C 7.945312 -6.832031 8.820312 -6.414062 9.375 -5.84375 C 9.9375 -5.28125 10.21875 -4.519531 10.21875 -3.5625 C 10.21875 -2.800781 10.03125 -2.132812 9.65625 -1.5625 C 9.28125 -0.988281 8.742188 -0.546875 8.046875 -0.234375 C 7.347656 0.0664062 6.515625 0.21875 5.546875 0.21875 Z M 5.546875 0.21875 "/></g></g></g><g fill="#000000" fill-opacity="1"><g transform="translate(172.13367, 303.517862)"><g><path d="M 1.703125 0 L 1.703125 -16.609375 L 4.6875 -16.609375 L 4.6875 -10.296875 L 4.90625 -10.265625 C 5.300781 -10.835938 5.785156 -11.28125 6.359375 -11.59375 C 6.929688 -11.914062 7.625 -12.078125 8.4375 -12.078125 C 11.050781 -12.078125 12.359375 -10.59375 12.359375 -7.625 L 12.359375 0 L 9.375 0 L 9.375 -7.25 C 9.375 -8.0625 9.210938 -8.648438 8.890625 -9.015625 C 8.566406 -9.378906 8.066406 -9.5625 7.390625 -9.5625 C 6.554688 -9.5625 5.894531 -9.28125 5.40625 -8.71875 C 4.925781 -8.164062 4.6875 -7.304688 4.6875 -6.140625 L 4.6875 0 Z M 1.703125 0 "/></g></g></g><g fill="#000000" fill-opacity="1"><g transform="translate(186.010112, 303.517862)"><g><path d="M 4.625 0.21875 C 3.863281 0.21875 3.203125 0.0820312 2.640625 -0.1875 C 2.085938 -0.46875 1.660156 -0.878906 1.359375 -1.421875 C 1.054688 -1.960938 0.90625 -2.613281 0.90625 -3.375 C 0.90625 -4.070312 1.054688 -4.660156 1.359375 -5.140625 C 1.660156 -5.617188 2.125 -6.007812 2.75 -6.3125 C 3.382812 -6.613281 4.207031 -6.847656 5.21875 -7.015625 C 5.925781 -7.128906 6.460938 -7.253906 6.828125 -7.390625 C 7.203125 -7.523438 7.453125 -7.675781 7.578125 -7.84375 C 7.710938 -8.019531 7.78125 -8.242188 7.78125 -8.515625 C 7.78125 -8.890625 7.644531 -9.175781 7.375 -9.375 C 7.113281 -9.570312 6.675781 -9.671875 6.0625 -9.671875 C 5.40625 -9.671875 4.773438 -9.523438 4.171875 -9.234375 C 3.578125 -8.941406 3.0625 -8.554688 2.625 -8.078125 L 2.421875 -8.078125 L 1.171875 -9.953125 C 1.773438 -10.617188 2.507812 -11.140625 3.375 -11.515625 C 4.238281 -11.890625 5.179688 -12.078125 6.203125 -12.078125 C 7.773438 -12.078125 8.910156 -11.742188 9.609375 -11.078125 C 10.316406 -10.410156 10.671875 -9.460938 10.671875 -8.234375 L 10.671875 -3.09375 C 10.671875 -2.5625 10.898438 -2.296875 11.359375 -2.296875 C 11.546875 -2.296875 11.722656 -2.328125 11.890625 -2.390625 L 12.046875 -2.359375 L 12.25 -0.28125 C 12.09375 -0.175781 11.863281 -0.0859375 11.5625 -0.015625 C 11.269531 0.0546875 10.953125 0.09375 10.609375 0.09375 C 9.898438 0.09375 9.34375 -0.0390625 8.9375 -0.3125 C 8.539062 -0.59375 8.257812 -1.019531 8.09375 -1.59375 L 7.859375 -1.625 C 7.285156 -0.394531 6.207031 0.21875 4.625 0.21875 Z M 5.5625 -2 C 6.25 -2 6.796875 -2.226562 7.203125 -2.6875 C 7.617188 -3.15625 7.828125 -3.800781 7.828125 -4.625 L 7.828125 -5.828125 L 7.625 -5.859375 C 7.445312 -5.722656 7.210938 -5.601562 6.921875 -5.5 C 6.628906 -5.40625 6.210938 -5.3125 5.671875 -5.21875 C 5.023438 -5.113281 4.5625 -4.929688 4.28125 -4.671875 C 4 -4.410156 3.859375 -4.039062 3.859375 -3.5625 C 3.859375 -3.050781 4.007812 -2.660156 4.3125 -2.390625 C 4.613281 -2.128906 5.03125 -2 5.5625 -2 Z M 5.5625 -2 "/></g></g></g><g fill="#000000" fill-opacity="1"><g transform="translate(198.501063, 303.517862)"><g/></g></g><g fill="#000000" fill-opacity="1"><g transform="translate(203.688623, 303.517862)"><g><path d="M 5.546875 0.21875 C 4.734375 0.21875 3.988281 0.125 3.3125 -0.0625 C 2.644531 -0.25 2.070312 -0.507812 1.59375 -0.84375 C 1.113281 -1.175781 0.757812 -1.554688 0.53125 -1.984375 L 2.1875 -3.765625 L 2.421875 -3.765625 C 2.816406 -3.234375 3.28125 -2.835938 3.8125 -2.578125 C 4.351562 -2.316406 4.9375 -2.1875 5.5625 -2.1875 C 6.144531 -2.1875 6.582031 -2.285156 6.875 -2.484375 C 7.164062 -2.691406 7.3125 -2.992188 7.3125 -3.390625 C 7.3125 -3.679688 7.207031 -3.929688 7 -4.140625 C 6.789062 -4.347656 6.445312 -4.507812 5.96875 -4.625 L 4.40625 -5 C 3.226562 -5.28125 2.367188 -5.707031 1.828125 -6.28125 C 1.285156 -6.851562 1.015625 -7.582031 1.015625 -8.46875 C 1.015625 -9.207031 1.203125 -9.847656 1.578125 -10.390625 C 1.960938 -10.941406 2.492188 -11.359375 3.171875 -11.640625 C 3.859375 -11.929688 4.65625 -12.078125 5.5625 -12.078125 C 6.632812 -12.078125 7.519531 -11.921875 8.21875 -11.609375 C 8.914062 -11.304688 9.460938 -10.894531 9.859375 -10.375 L 8.265625 -8.65625 L 8.0625 -8.65625 C 7.726562 -9.03125 7.351562 -9.300781 6.9375 -9.46875 C 6.53125 -9.644531 6.070312 -9.734375 5.5625 -9.734375 C 4.382812 -9.734375 3.796875 -9.367188 3.796875 -8.640625 C 3.796875 -8.328125 3.90625 -8.070312 4.125 -7.875 C 4.34375 -7.6875 4.726562 -7.53125 5.28125 -7.40625 L 6.75 -7.09375 C 7.945312 -6.832031 8.820312 -6.414062 9.375 -5.84375 C 9.9375 -5.28125 10.21875 -4.519531 10.21875 -3.5625 C 10.21875 -2.800781 10.03125 -2.132812 9.65625 -1.5625 C 9.28125 -0.988281 8.742188 -0.546875 8.046875 -0.234375 C 7.347656 0.0664062 6.515625 0.21875 5.546875 0.21875 Z M 5.546875 0.21875 "/></g></g></g><g fill="#000000" fill-opacity="1"><g transform="translate(214.611493, 303.517862)"><g><path d="M 11.703125 -5.25 L 4.09375 -5.25 C 4.175781 -4.21875 4.46875 -3.46875 4.96875 -3 C 5.46875 -2.53125 6.15625 -2.296875 7.03125 -2.296875 C 7.707031 -2.296875 8.253906 -2.421875 8.671875 -2.671875 C 9.097656 -2.929688 9.441406 -3.316406 9.703125 -3.828125 L 9.921875 -3.828125 L 11.90625 -2.5625 C 11.519531 -1.738281 10.9375 -1.066406 10.15625 -0.546875 C 9.375 -0.0351562 8.332031 0.21875 7.03125 0.21875 C 5.800781 0.21875 4.738281 -0.0078125 3.84375 -0.46875 C 2.957031 -0.9375 2.269531 -1.628906 1.78125 -2.546875 C 1.300781 -3.472656 1.0625 -4.597656 1.0625 -5.921875 C 1.0625 -7.265625 1.316406 -8.394531 1.828125 -9.3125 C 2.335938 -10.238281 3.023438 -10.929688 3.890625 -11.390625 C 4.753906 -11.847656 5.726562 -12.078125 6.8125 -12.078125 C 8.488281 -12.078125 9.769531 -11.628906 10.65625 -10.734375 C 11.550781 -9.847656 12 -8.546875 12 -6.828125 C 12 -6.203125 11.976562 -5.71875 11.9375 -5.375 Z M 9.15625 -7.171875 C 9.125 -8.078125 8.910156 -8.734375 8.515625 -9.140625 C 8.128906 -9.554688 7.5625 -9.765625 6.8125 -9.765625 C 5.3125 -9.765625 4.425781 -8.898438 4.15625 -7.171875 Z M 9.15625 -7.171875 "/></g></g></g><g fill="#000000" fill-opacity="1"><g transform="translate(227.489094, 303.517862)"><g><path d="M 8.171875 -2.828125 L 8.953125 -0.625 C 8.628906 -0.351562 8.222656 -0.144531 7.734375 0 C 7.242188 0.144531 6.691406 0.21875 6.078125 0.21875 C 4.796875 0.21875 3.820312 -0.128906 3.15625 -0.828125 C 2.488281 -1.523438 2.15625 -2.539062 2.15625 -3.875 L 2.15625 -9.5 L 0.359375 -9.5 L 0.359375 -11.859375 L 2.15625 -11.859375 L 2.15625 -14.171875 L 5.140625 -14.65625 L 5.140625 -11.859375 L 8.5 -11.859375 L 8.5 -9.5 L 5.140625 -9.5 L 5.140625 -4.078125 C 5.140625 -3.492188 5.257812 -3.066406 5.5 -2.796875 C 5.738281 -2.523438 6.09375 -2.390625 6.5625 -2.390625 C 7.09375 -2.390625 7.554688 -2.535156 7.953125 -2.828125 Z M 8.171875 -2.828125 "/></g></g></g><g fill="#000000" fill-opacity="1"><g transform="translate(236.693519, 303.517862)"><g><path d="M 5.421875 0.21875 C 4.085938 0.21875 3.101562 -0.140625 2.46875 -0.859375 C 1.84375 -1.585938 1.53125 -2.632812 1.53125 -4 L 1.53125 -11.84375 L 4.5 -11.84375 L 4.5 -4.375 C 4.5 -3.644531 4.65625 -3.113281 4.96875 -2.78125 C 5.28125 -2.445312 5.757812 -2.28125 6.40625 -2.28125 C 7.238281 -2.28125 7.882812 -2.550781 8.34375 -3.09375 C 8.800781 -3.632812 9.03125 -4.488281 9.03125 -5.65625 L 9.03125 -11.84375 L 12 -11.84375 L 12 0 L 9.140625 0 L 9.140625 -1.734375 L 8.921875 -1.796875 C 8.535156 -1.117188 8.066406 -0.613281 7.515625 -0.28125 C 6.972656 0.0507812 6.273438 0.21875 5.421875 0.21875 Z M 5.421875 0.21875 "/></g></g></g></svg>